<svg xmlns="http://www.w3.org/2000/svg" viewBox="0 0 24 24" width="64" height="64">
  <!-- Outer wheel -->
  <circle cx="12" cy="12" r="9.5" fill="none" stroke="#fff" stroke-width="1.5"/>
  
  <!-- Center circle -->
  <circle cx="12" cy="12" r="2.5" fill="#fff" stroke="#fff" stroke-width="0.5"/>
  
  <!-- Spokes from center to rim (8 spokes equally spaced) -->
  <g stroke="#fff" stroke-width="1" opacity="0.9">
    <line x1="12" y1="12" x2="12" y2="2.5"/>
    <line x1="12" y1="12" x2="18.24" y2="5.76"/>
    <line x1="12" y1="12" x2="21.5" y2="12"/>
    <line x1="12" y1="12" x2="18.24" y2="18.24"/>
    <line x1="12" y1="12" x2="12" y2="21.5"/>
    <line x1="12" y1="12" x2="5.76" y2="18.24"/>
    <line x1="12" y1="12" x2="2.5" y2="12"/>
    <line x1="12" y1="12" x2="5.76" y2="5.76"/>
  </g>
  
  <!-- 8 decorative segments/sections on the wheel rim -->
  <g fill="#fff" opacity="0.85">
    <!-- Segment dots on rim -->
    <circle cx="12" cy="3" r="0.7"/>
    <circle cx="18.36" cy="5.64" r="0.7"/>
    <circle cx="21" cy="12" r="0.7"/>
    <circle cx="18.36" cy="18.36" r="0.7"/>
    <circle cx="12" cy="21" r="0.7"/>
    <circle cx="5.64" cy="18.36" r="0.7"/>
    <circle cx="3" cy="12" r="0.7"/>
    <circle cx="5.64" cy="5.64" r="0.7"/>
  </g>
  
  <!-- Double rim effect -->
  <circle cx="12" cy="12" r="7.5" fill="none" stroke="#fff" stroke-width="0.8" opacity="0.5"/>
</svg>